<?xml version="1.0" encoding="UTF-8"?>
<svg width="42px" height="28px" viewBox="0 0 42 28" version="1.1" xmlns="http://www.w3.org/2000/svg" xmlns:xlink="http://www.w3.org/1999/xlink">
    <!-- Generator: Sketch 40.3 (33839) - http://www.bohemiancoding.com/sketch -->
    <title>eye</title>
    <desc>Created with Sketch.</desc>
    <defs></defs>
    <g id="Page-1" stroke="none" stroke-width="1" fill="none" fill-rule="evenodd">
        <g id="eye" fill="#000000">
            <g id="Page-1">
                <g id="eye">
                    <g id="Group">
                        <path d="M20.9993942,21.6825689 C13.0621908,21.6825689 9.0708733,14.5700605 9.03149924,14.4986191 C9.01090358,14.4609897 9,14.4200881 9,14.3780959 L9,14.3055638 C9,14.2635715 9.01090358,14.2226699 9.03149924,14.1850405 C9.0708733,14.1130538 13.0621908,7 20.9993942,7 C28.9372034,7 32.9291267,14.1130538 32.9685008,14.1850405 C32.9890964,14.2226699 33,14.2641169 33,14.3055638 L33,14.3780959 C33,14.4200881 32.9890964,14.4609897 32.9685008,14.4986191 C32.9285209,14.5706059 28.9372034,21.6825689 20.9993942,21.6825689 L20.9993942,21.6825689 L20.9993942,21.6825689 Z M9.62332155,14.3421025 C10.0921757,15.1306845 13.903584,21.1377602 20.9987885,21.1377602 C28.103685,21.1377602 31.9072186,15.1306845 32.3754669,14.3421025 C31.9066128,13.5540658 28.0958102,7.54535412 20.9987885,7.54535412 C13.8951035,7.54535412 10.0915699,13.5529751 9.62332155,14.3421025 L9.62332155,14.3421025 L9.62332155,14.3421025 Z" id="Shape"></path>
                        <path d="M21.0349572,24.84413 C9.76689501,24.84413 4.10061538,14.7468473 4.04471795,14.6454254 C4.01547929,14.5920047 4,14.5339388 4,14.4743244 L4,14.3713541 C4,14.3117397 4.01547929,14.2536737 4.04471795,14.2002531 C4.10061538,14.098057 9.76689501,4 21.0349572,4 C32.3038794,4 37.971019,14.098057 38.0269165,14.2002531 C38.0561551,14.2536737 38.0716344,14.3125139 38.0716344,14.3713541 L38.0716344,14.4743244 C38.0716344,14.5339388 38.0561551,14.5920047 38.0269165,14.6454254 C37.9701591,14.7476215 32.3038794,24.84413 21.0349572,24.84413 L21.0349572,24.84413 L21.0349572,24.84413 Z M4.88489934,14.4232263 C5.55050875,15.542738 10.9613801,24.0706915 21.0340973,24.0706915 C31.1205738,24.0706915 36.5202657,15.542738 37.1850151,14.4232263 C36.5194057,13.3044889 31.1093943,4.77421276 21.0340973,4.77421276 C10.9493407,4.77421276 5.54964879,13.3029405 4.88489934,14.4232263 L4.88489934,14.4232263 L4.88489934,14.4232263 Z" id="Shape"></path>
                        <path d="M20.9989399,27.8953427 C7.10883392,27.8953427 0.124028269,14.3823219 0.0551236749,14.2465907 C0.0190812721,14.1750987 0,14.09739 0,14.0176091 L0,13.8798058 C0,13.8000248 0.0190812721,13.7223162 0.0551236749,13.6508242 C0.124028269,13.5140569 7.10883392,0 20.9989399,0 C34.890106,0 41.8759717,13.5140569 41.9448763,13.6508242 C41.9809187,13.7223162 42,13.801061 42,13.8798058 L42,14.0176091 C42,14.09739 41.9809187,14.1750987 41.9448763,14.2465907 C41.8749117,14.383358 34.890106,27.8953427 20.9989399,27.8953427 L20.9989399,27.8953427 L20.9989399,27.8953427 Z M1.09081272,13.9492255 C1.91130742,15.4474488 8.58127208,26.8602631 20.9978799,26.8602631 C33.4314488,26.8602631 40.0876325,15.4474488 40.9070671,13.9492255 C40.0865724,12.4520383 33.4176678,1.03611569 20.9978799,1.03611569 C8.5664311,1.03611569 1.91024735,12.4499661 1.09081272,13.9492255 L1.09081272,13.9492255 L1.09081272,13.9492255 Z" id="Shape"></path>
                        <ellipse id="Oval" cx="21.1849999" cy="14.186482" rx="2.18499994" ry="2.18648201"></ellipse>
                    </g>
                </g>
            </g>
        </g>
    </g>
</svg>